<?xml version="1.0" encoding="utf-8"?>
<!-- Generator: Adobe Illustrator 27.4.1, SVG Export Plug-In . SVG Version: 6.00 Build 0)  -->
<svg version="1.1" id="Calque_1" xmlns="http://www.w3.org/2000/svg" xmlns:xlink="http://www.w3.org/1999/xlink" x="0px" y="0px"
	 viewBox="0 0 261.4 111.4" style="enable-background:new 0 0 261.4 111.4;" xml:space="preserve">
<style type="text/css">
	.st0{fill:#FFFFFF;}
</style>
<path d="M195.2,60.6l0-18.5c0-3.2,0.4-6.3,2.9-8.6l0,0c2.9-2.3,6-4.4,13.2-4.7l3.4,0c5.6-0.1,10.7,1.6,13.1,5.4v0
	c0.6,1.3,1.4,4.3,1.4,6.7l0,5.4c-0.2,4-1,6.3-2.2,7.9c-0.6,0.8-1.4,1.5-2.3,2v0c-0.2,0.1-0.4,0.2-0.6,0.3c-1.4,0.6-2.7,0.9-4.4,1
	c-1.9,0.1-5.3,0.3-7.2,0.4l-11.5,1c0,0,0,0,0,0c-1.6,0-3.1,0.5-4.4,1.3l-1,0.6C195.5,60.9,195.2,60.8,195.2,60.6z"/>
<g>
	<path d="M46.1,70.4c-0.4,0-0.7-0.1-0.9-0.4c-0.2-0.2-0.4-0.5-0.4-0.9V38.3c0-0.4,0.1-0.7,0.4-0.9c0.2-0.2,0.5-0.3,0.9-0.3h8.6
		c2.1,0,3.9,0.5,5.5,1.4c1.6,0.9,2.9,2.2,3.8,3.8c0.9,1.6,1.4,3.5,1.4,5.5c0,2.1-0.5,3.9-1.4,5.6c-0.9,1.6-2.2,2.9-3.8,3.8
		c-1.6,0.9-3.5,1.4-5.5,1.4h-7.3v10.7c0,0.4-0.1,0.7-0.3,0.9C46.8,70.3,46.5,70.4,46.1,70.4z M47.4,55.8h7.3c1.6,0,3-0.3,4.2-1
		c1.2-0.7,2.2-1.7,2.9-2.9c0.7-1.2,1-2.6,1-4.2c0-1.6-0.4-3-1-4.2c-0.7-1.2-1.7-2.2-2.9-2.9c-1.2-0.7-2.6-1-4.2-1h-7.3V55.8z"/>
	<path d="M46.1,71.3c-0.6,0-1.1-0.2-1.6-0.6c-0.4-0.4-0.6-0.9-0.6-1.6V38.3c0-0.8,0.4-1.3,0.6-1.6c0.4-0.4,0.9-0.6,1.5-0.6h8.6
		c2.2,0,4.2,0.5,6,1.5c1.7,1,3.1,2.4,4.1,4.1c1,1.7,1.5,3.8,1.5,6c0,2.2-0.5,4.2-1.5,6c-1,1.8-2.4,3.2-4.1,4.2c-1.7,1-3.8,1.5-6,1.5
		h-6.4v9.8c0,0.6-0.2,1.1-0.6,1.5C47.4,70.9,46.9,71.3,46.1,71.3z M46.1,37.9c-0.2,0-0.3,0.1-0.3,0.1c0,0-0.1,0.1-0.1,0.3v30.9
		c0,0.2,0.1,0.2,0.1,0.3c0.1,0.1,0.1,0.1,0.3,0.1c0.2,0,0.3-0.1,0.3-0.1c0-0.1,0.1-0.1,0.1-0.3V57.5h8.2c1.9,0,3.6-0.4,5.1-1.3
		c1.5-0.8,2.6-2,3.5-3.5c0.8-1.5,1.3-3.2,1.3-5.1c0-1.9-0.4-3.6-1.3-5.1c-0.8-1.5-2-2.6-3.5-3.5c-1.5-0.8-3.2-1.3-5.1-1.3H46.1z
		 M54.7,56.7h-8.2V38.6h8.2c1.7,0,3.3,0.4,4.7,1.2c1.3,0.8,2.4,1.9,3.2,3.2c0.8,1.3,1.2,2.9,1.2,4.7s-0.4,3.3-1.2,4.7
		c-0.8,1.4-1.9,2.4-3.2,3.2C58,56.3,56.4,56.7,54.7,56.7z M48.3,55h6.4c1.4,0,2.7-0.3,3.8-0.9c1.1-0.6,1.9-1.5,2.5-2.6
		c0.6-1.1,0.9-2.4,0.9-3.8c0-1.4-0.3-2.7-0.9-3.8c-0.6-1.1-1.5-1.9-2.5-2.5c-1.1-0.6-2.3-0.9-3.8-0.9h-6.4V55z"/>
</g>
<g>
	<path d="M80.1,70.7c-2.3,0-4.3-0.5-6.1-1.6c-1.8-1-3.2-2.5-4.3-4.3c-1-1.8-1.6-3.8-1.6-6.1c0-2.3,0.5-4.3,1.6-6.1
		c1-1.8,2.5-3.2,4.3-4.3c1.8-1,3.9-1.6,6.1-1.6c2.3,0,4.3,0.5,6.1,1.6c1.8,1,3.2,2.5,4.3,4.3c1,1.8,1.6,3.9,1.6,6.1
		c0,2.3-0.5,4.3-1.6,6.1c-1,1.8-2.5,3.2-4.3,4.3C84.5,70.1,82.4,70.7,80.1,70.7z M80.1,68.3c1.8,0,3.4-0.4,4.8-1.3
		c1.4-0.8,2.5-2,3.3-3.4c0.8-1.4,1.2-3.1,1.2-4.9c0-1.8-0.4-3.4-1.2-4.9c-0.8-1.4-1.9-2.6-3.3-3.4c-1.4-0.8-3-1.3-4.8-1.3
		c-1.8,0-3.4,0.4-4.8,1.3c-1.4,0.8-2.6,2-3.4,3.4c-0.8,1.4-1.2,3.1-1.2,4.9c0,1.8,0.4,3.4,1.2,4.9c0.8,1.4,2,2.6,3.4,3.4
		C76.8,67.8,78.4,68.3,80.1,68.3z"/>
	<path d="M80.1,71.6c-2.4,0-4.6-0.6-6.6-1.7c-1.9-1.1-3.5-2.7-4.6-4.6c-1.1-1.9-1.7-4.1-1.7-6.5c0-2.4,0.6-4.6,1.7-6.6
		c1.1-1.9,2.7-3.5,4.6-4.6c1.9-1.1,4.2-1.7,6.6-1.7c2.4,0,4.6,0.6,6.6,1.7c1.9,1.1,3.5,2.7,4.6,4.6c1.1,1.9,1.7,4.2,1.7,6.6
		c0,2.4-0.6,4.6-1.7,6.5c-1.1,1.9-2.7,3.5-4.6,4.6C84.8,71,82.6,71.6,80.1,71.6z M80.1,47.6c-2.1,0-4,0.5-5.7,1.4c-1.7,1-3,2.3-4,4
		c-1,1.7-1.4,3.6-1.4,5.7c0,2.1,0.5,4,1.4,5.7c1,1.7,2.3,3,4,4c1.7,1,3.6,1.4,5.7,1.4c2.1,0,4-0.5,5.7-1.4c1.7-1,3-2.3,3.9-4
		c1-1.7,1.4-3.6,1.4-5.7c0-2.1-0.5-4-1.4-5.7c-1-1.7-2.3-3-3.9-4C84.2,48.1,82.2,47.6,80.1,47.6z M80.1,69.2c-1.9,0-3.7-0.5-5.2-1.4
		c-1.6-0.9-2.8-2.2-3.7-3.7c-0.9-1.6-1.4-3.4-1.4-5.3c0-2,0.5-3.8,1.4-5.3c0.9-1.6,2.1-2.8,3.7-3.7c3.1-1.9,7.4-1.8,10.5,0
		c1.5,0.9,2.8,2.2,3.7,3.8c0.9,1.6,1.3,3.4,1.3,5.3c0,2-0.4,3.8-1.3,5.3c-0.9,1.6-2.1,2.8-3.7,3.8C83.9,68.7,82.1,69.2,80.1,69.2z
		 M80.1,50c-1.6,0-3.1,0.4-4.3,1.1c-1.3,0.8-2.3,1.8-3.1,3.1c-0.7,1.3-1.1,2.8-1.1,4.5c0,1.6,0.4,3.1,1.1,4.4
		c0.7,1.3,1.8,2.3,3.1,3.1c2.6,1.5,6.2,1.5,8.7,0c1.3-0.8,2.3-1.8,3-3.1c0.7-1.3,1.1-2.8,1.1-4.5c0-1.6-0.4-3.1-1.1-4.4
		c-0.7-1.3-1.7-2.3-3-3.1C83.2,50.4,81.8,50,80.1,50z"/>
</g>
<g>
	<path d="M99.8,80.4c-0.4,0-0.7-0.1-0.9-0.4c-0.2-0.2-0.4-0.6-0.4-0.9V58.5c0.1-2.3,0.6-4.3,1.6-6c1-1.8,2.5-3.1,4.3-4.2
		c1.8-1,3.8-1.5,6-1.5c2.3,0,4.3,0.5,6.1,1.6c1.8,1,3.2,2.5,4.3,4.3c1,1.8,1.6,3.9,1.6,6.1c0,2.3-0.5,4.3-1.6,6.1
		c-1,1.8-2.5,3.2-4.3,4.3c-1.8,1-3.9,1.6-6.1,1.6c-2.1,0-3.9-0.4-5.5-1.3c-1.6-0.9-2.9-2.1-3.8-3.6v13.4c0,0.4-0.1,0.7-0.3,0.9
		C100.5,80.3,100.2,80.4,99.8,80.4z M110.4,68.3c1.8,0,3.4-0.4,4.8-1.3c1.4-0.8,2.5-2,3.4-3.4c0.8-1.4,1.2-3.1,1.2-4.9
		c0-1.8-0.4-3.5-1.2-4.9c-0.8-1.4-1.9-2.6-3.4-3.4c-1.4-0.8-3-1.3-4.8-1.3c-1.8,0-3.4,0.4-4.8,1.3c-1.4,0.8-2.5,2-3.4,3.4
		c-0.8,1.4-1.2,3.1-1.2,4.9c0,1.8,0.4,3.4,1.2,4.9c0.8,1.4,1.9,2.6,3.4,3.4C107.1,67.8,108.7,68.3,110.4,68.3z"/>
	<path d="M99.8,81.3c-0.6,0-1.1-0.2-1.6-0.6c-0.4-0.4-0.6-0.9-0.6-1.6V58.5c0.1-2.4,0.7-4.6,1.8-6.5c1.1-1.9,2.7-3.4,4.6-4.5
		c1.9-1.1,4.1-1.7,6.5-1.7c2.4,0,4.6,0.6,6.6,1.7c1.9,1.1,3.5,2.7,4.6,4.6c1.1,1.9,1.7,4.2,1.7,6.6c0,2.4-0.6,4.6-1.7,6.5
		c-1.1,1.9-2.7,3.5-4.6,4.6c-1.9,1.1-4.2,1.7-6.6,1.7c-2.2,0-4.2-0.5-6-1.4c-0.9-0.5-1.8-1.1-2.5-1.8v10.8c0,0.6-0.2,1.1-0.6,1.5
		C101.1,81,100.6,81.3,99.8,81.3z M110.4,47.6c-2.1,0-3.9,0.5-5.6,1.4c-1.7,0.9-3,2.2-3.9,3.9c-1,1.6-1.5,3.5-1.5,5.6v20.7
		c0,0.2,0,0.2,0.1,0.3c0.1,0.1,0.1,0.1,0.3,0.1c0.2,0,0.3-0.1,0.3-0.1c0,0,0.1-0.1,0.1-0.3V62.6l1.7,2.7c0.8,1.3,2,2.4,3.5,3.2
		c1.5,0.8,3.2,1.2,5.1,1.2c2.1,0,4-0.5,5.7-1.4c1.7-1,3-2.3,4-4c1-1.7,1.4-3.6,1.4-5.7c0-2.1-0.5-4-1.4-5.7c-1-1.7-2.3-3-4-4
		C114.5,48.1,112.6,47.6,110.4,47.6z M110.4,69.2c-1.9,0-3.7-0.5-5.2-1.4c-1.6-0.9-2.8-2.2-3.7-3.8c-0.9-1.6-1.3-3.4-1.3-5.3
		c0-2,0.4-3.8,1.3-5.3c0.9-1.6,2.1-2.8,3.7-3.8c3.1-1.9,7.4-1.8,10.5,0c1.5,0.9,2.8,2.2,3.7,3.7c0.9,1.6,1.4,3.4,1.4,5.3
		c0,1.9-0.5,3.7-1.4,5.3c-0.9,1.6-2.1,2.8-3.7,3.7C114.2,68.7,112.4,69.2,110.4,69.2z M110.4,50c-1.6,0-3.1,0.4-4.3,1.1
		c-1.3,0.8-2.3,1.8-3,3.1c-0.7,1.3-1.1,2.8-1.1,4.5c0,1.6,0.4,3.1,1.1,4.4c0.7,1.3,1.8,2.3,3,3.1c2.6,1.5,6.2,1.5,8.7,0
		c1.3-0.8,2.3-1.8,3-3.1c0.7-1.3,1.1-2.8,1.1-4.4c0-1.7-0.4-3.2-1.1-4.5c-0.7-1.3-1.8-2.3-3-3.1C113.5,50.4,112.1,50,110.4,50z"/>
</g>
<g>
	<path d="M131,42.1c-0.5,0-1-0.2-1.4-0.6c-0.4-0.4-0.6-0.9-0.6-1.4c0-0.7,0.2-1.1,0.6-1.5c0.4-0.3,0.9-0.5,1.4-0.5
		c0.5,0,0.9,0.2,1.3,0.5c0.4,0.3,0.6,0.8,0.6,1.5c0,0.6-0.2,1-0.6,1.4C132,41.9,131.5,42.1,131,42.1z"/>
	<path d="M131,43c-0.8,0-1.5-0.3-2-0.8c-0.6-0.6-0.8-1.3-0.8-2.1c0-1.2,0.5-1.8,1-2.2c1.1-0.9,2.7-0.9,3.8,0c0.4,0.4,1,1,1,2.2
		c0,0.8-0.3,1.5-0.8,2.1C132.5,42.7,131.8,43,131,43z M131,39c-0.3,0-0.6,0.1-0.8,0.3c-0.1,0.1-0.3,0.2-0.3,0.8
		c0,0.3,0.1,0.6,0.3,0.8c0.5,0.5,1.1,0.4,1.6,0c0.2-0.2,0.3-0.5,0.3-0.8c0-0.5-0.2-0.7-0.3-0.8C131.5,39.1,131.3,39,131,39z"/>
</g>
<g>
	<path class="st0" d="M204,53.9c-0.2,0-0.5-0.1-0.6-0.3c-0.2-0.2-0.3-0.4-0.3-0.6c0-0.3,0.1-0.5,0.3-0.6c0.2-0.1,0.4-0.2,0.6-0.2
		c0.2,0,0.4,0.1,0.6,0.2c0.2,0.1,0.3,0.4,0.3,0.6c0,0.2-0.1,0.5-0.3,0.6C204.4,53.8,204.2,53.9,204,53.9z"/>
	<path class="st0" d="M204,52.2C204,52.2,204,52.2,204,52.2c0.2,0,0.4,0.1,0.6,0.2c0.2,0.1,0.3,0.4,0.3,0.6c0,0.2-0.1,0.5-0.3,0.6
		c-0.2,0.2-0.4,0.2-0.7,0.2c0,0,0,0,0,0c-0.2,0-0.5-0.1-0.6-0.3c-0.2-0.2-0.3-0.4-0.3-0.6c0-0.3,0.1-0.5,0.3-0.6
		C203.5,52.2,203.7,52.2,204,52.2 M204,51.6c-0.4,0-0.7,0.1-1,0.3c-0.2,0.2-0.5,0.5-0.5,1.1c0,0.4,0.1,0.7,0.4,1
		c0.3,0.3,0.6,0.4,1,0.4c0.4,0,0.8-0.1,1-0.4c0.3-0.3,0.4-0.6,0.4-1c0-0.6-0.3-0.9-0.5-1.1C204.6,51.7,204.3,51.6,204,51.6L204,51.6
		L204,51.6L204,51.6z"/>
</g>
<g>
	<path d="M131,70.4c-0.4,0-0.7-0.1-0.9-0.4c-0.2-0.2-0.4-0.5-0.4-0.9V48.3c0-0.4,0.1-0.7,0.4-0.9c0.2-0.2,0.5-0.3,0.9-0.3
		c0.4,0,0.7,0.1,0.9,0.3c0.2,0.2,0.3,0.5,0.3,0.9v20.8c0,0.4-0.1,0.7-0.3,0.9C131.7,70.3,131.4,70.4,131,70.4z"/>
	<path d="M131,71.3c-0.6,0-1.1-0.2-1.6-0.6c-0.4-0.4-0.6-0.9-0.6-1.6V48.3c0-0.8,0.4-1.3,0.6-1.6c0.4-0.4,0.9-0.6,1.5-0.6
		c0.8,0,1.3,0.3,1.6,0.6c0.3,0.3,0.6,0.8,0.6,1.6v20.8c0,0.6-0.2,1.1-0.6,1.5C132.3,70.9,131.8,71.3,131,71.3z M131,47.9
		c-0.2,0-0.3,0.1-0.3,0.1c0,0-0.1,0.1-0.1,0.3v20.8c0,0.2,0.1,0.2,0.1,0.3c0.1,0.1,0.1,0.1,0.3,0.1c0.2,0,0.3-0.1,0.3-0.1
		c0-0.1,0.1-0.1,0.1-0.3V48.3c0-0.2,0-0.3-0.1-0.3C131.3,47.9,131.1,47.9,131,47.9z"/>
</g>
<g>
	<path d="M148.8,70.7c-1.5,0-3-0.3-4.7-0.8c-1.6-0.5-3-1.5-4.1-2.7c-0.2-0.3-0.3-0.6-0.3-0.9c0-0.3,0.2-0.6,0.5-0.8
		c0.3-0.2,0.6-0.3,0.9-0.2c0.3,0.1,0.6,0.2,0.8,0.5c0.8,1,1.8,1.6,3,2c1.2,0.4,2.5,0.6,3.9,0.6c2.4,0,4.1-0.4,5.1-1.3
		c1-0.9,1.5-1.9,1.5-3c0-1.1-0.5-2-1.6-2.8c-1.1-0.7-2.7-1.2-4.9-1.6c-2.9-0.4-5-1.2-6.3-2.3c-1.4-1.1-2.1-2.5-2.1-4
		c0-1.4,0.4-2.6,1.1-3.6c0.7-1,1.7-1.7,2.9-2.2c1.2-0.5,2.7-0.7,4.3-0.7c1.9,0,3.6,0.4,4.9,1c1.3,0.7,2.4,1.6,3.3,2.8
		c0.2,0.3,0.3,0.6,0.2,0.9c-0.1,0.3-0.3,0.6-0.7,0.8c-0.3,0.1-0.6,0.2-0.9,0.1c-0.3-0.1-0.6-0.2-0.8-0.5c-0.7-0.9-1.6-1.6-2.6-2.1
		c-1-0.5-2.2-0.7-3.5-0.7c-1.8,0-3.2,0.4-4.2,1.2c-1,0.8-1.5,1.7-1.5,2.8c0,0.7,0.2,1.4,0.6,1.9s1.1,1,2,1.4s2.2,0.7,3.8,0.9
		c2.1,0.3,3.8,0.8,5.1,1.5c1.2,0.7,2.1,1.5,2.7,2.4c0.5,0.9,0.8,1.9,0.8,2.9c0,1.3-0.4,2.5-1.3,3.5c-0.9,1-2,1.8-3.4,2.3
		C151.9,70.4,150.4,70.7,148.8,70.7z"/>
	<path d="M148.8,71.6c-1.6,0-3.2-0.3-4.9-0.9c-1.8-0.6-3.3-1.6-4.5-3c-0.4-0.5-0.6-1-0.5-1.6c0.1-0.6,0.4-1.1,0.9-1.4
		c0.5-0.3,1-0.5,1.6-0.4c0.5,0.1,1,0.4,1.3,0.8c0.7,0.8,1.6,1.4,2.6,1.7c1.1,0.4,2.3,0.5,3.6,0.5c2.2,0,3.7-0.4,4.5-1.1
		c0.8-0.7,1.2-1.4,1.2-2.3c0-0.8-0.4-1.5-1.2-2c-1-0.6-2.5-1.1-4.6-1.4c-3-0.4-5.3-1.2-6.8-2.5c-1.6-1.3-2.4-2.9-2.4-4.7
		c0-1.6,0.4-3,1.2-4.1c0.8-1.1,1.9-2,3.3-2.5c1.3-0.5,2.9-0.8,4.6-0.8c2.1,0,3.9,0.4,5.3,1.1c1.5,0.8,2.7,1.8,3.6,3.1
		c0.4,0.5,0.5,1,0.4,1.6c-0.1,0.4-0.4,1-1.1,1.4c-0.5,0.2-1,0.3-1.5,0.2c-0.5-0.1-1-0.4-1.4-0.8c-0.6-0.8-1.4-1.4-2.3-1.8
		c-0.9-0.4-2-0.6-3.2-0.6c-1.6,0-2.8,0.3-3.7,1c-0.8,0.6-1.2,1.3-1.2,2.1c0,0.6,0.1,1,0.4,1.4c0.3,0.4,0.9,0.8,1.7,1.1
		c0.9,0.4,2.1,0.6,3.6,0.9c2.3,0.3,4,0.8,5.4,1.6c1.4,0.8,2.4,1.7,3,2.7c0.6,1,0.9,2.2,0.9,3.3c0,1.6-0.5,2.9-1.5,4.1
		c-1,1.1-2.2,2-3.7,2.5C152.2,71.3,150.5,71.6,148.8,71.6z M141,66c-0.1,0-0.1,0-0.2,0.1c-0.1,0.1-0.2,0.2-0.2,0.2
		c0,0.1,0,0.1,0.1,0.2c1,1.1,2.2,2,3.7,2.5c3.2,1.1,6.1,1,8.6,0c1.3-0.5,2.3-1.2,3-2c0.7-0.8,1.1-1.8,1.1-2.9c0-0.9-0.2-1.7-0.7-2.4
		c-0.4-0.8-1.2-1.4-2.3-2c-1.1-0.6-2.7-1.1-4.8-1.4c-1.6-0.2-3-0.6-4-1c-1.1-0.4-1.9-1-2.4-1.7c-0.5-0.7-0.8-1.5-0.8-2.5
		c0-1.4,0.6-2.5,1.8-3.5c1.2-0.9,2.7-1.3,4.7-1.3c1.5,0,2.8,0.3,3.9,0.8c1.1,0.5,2.1,1.3,2.9,2.3c0.1,0.1,0.2,0.2,0.3,0.2
		c0.1,0,0.2,0,0.3,0c0.1,0,0.2-0.1,0.2-0.2c0,0,0-0.1-0.1-0.2c-0.8-1.1-1.8-1.9-3-2.6c-1.2-0.6-2.7-0.9-4.5-0.9
		c-1.5,0-2.8,0.2-3.9,0.7c-1.1,0.4-1.9,1.1-2.5,1.9c-0.6,0.8-0.9,1.8-0.9,3.1c0,1.2,0.6,2.3,1.7,3.3c1.2,1,3.2,1.7,5.9,2.1
		c2.4,0.3,4.1,0.9,5.3,1.7c1.3,0.9,2,2.1,2,3.5c0,1.4-0.6,2.6-1.8,3.7c-1.2,1-3,1.5-5.7,1.5c-1.5,0-2.9-0.2-4.1-0.6
		c-1.3-0.4-2.5-1.2-3.4-2.3C141.3,66.1,141.2,66,141,66C141.1,66,141.1,66,141,66z"/>
</g>
<g>
	<path d="M174.5,70.7c-2.3,0-4.3-0.5-6.1-1.6c-1.8-1-3.2-2.5-4.3-4.3c-1-1.8-1.6-3.9-1.6-6.1c0-2.3,0.5-4.3,1.6-6.1
		c1-1.8,2.5-3.2,4.3-4.3c1.8-1,3.9-1.6,6.1-1.6c2.1,0,3.9,0.4,5.5,1.3c1.6,0.9,2.9,2.1,3.8,3.6V38.3c0-0.4,0.1-0.7,0.4-0.9
		c0.2-0.2,0.5-0.3,0.9-0.3c0.4,0,0.7,0.1,0.9,0.3c0.2,0.2,0.3,0.5,0.3,0.9v20.7c0,2.2-0.6,4.2-1.6,6c-1.1,1.8-2.5,3.2-4.3,4.2
		C178.8,70.1,176.7,70.7,174.5,70.7z M174.5,68.3c1.8,0,3.4-0.4,4.8-1.3c1.4-0.8,2.5-2,3.3-3.4c0.8-1.4,1.2-3.1,1.2-4.9
		c0-1.8-0.4-3.5-1.2-4.9c-0.8-1.4-1.9-2.6-3.3-3.4c-1.4-0.8-3-1.3-4.8-1.3c-1.8,0-3.4,0.4-4.8,1.3c-1.4,0.8-2.6,2-3.4,3.4
		c-0.8,1.4-1.2,3.1-1.2,4.9c0,1.8,0.4,3.5,1.2,4.9c0.8,1.4,2,2.6,3.4,3.4C171.1,67.8,172.7,68.3,174.5,68.3z"/>
	<path d="M174.5,71.6c-2.4,0-4.6-0.6-6.6-1.7c-1.9-1.1-3.5-2.7-4.6-4.6c-1.1-1.9-1.7-4.2-1.7-6.6c0-2.4,0.6-4.6,1.7-6.6
		c1.1-1.9,2.7-3.5,4.6-4.6c1.9-1.1,4.2-1.7,6.6-1.7c2.2,0,4.2,0.5,6,1.4c0.9,0.5,1.8,1.1,2.5,1.8V38.3c0-0.8,0.4-1.3,0.6-1.6
		c0.4-0.4,0.9-0.6,1.5-0.6c0.8,0,1.3,0.3,1.6,0.6c0.3,0.3,0.6,0.8,0.6,1.6v20.7c0,2.4-0.6,4.6-1.8,6.5c-1.1,1.9-2.7,3.4-4.6,4.5
		C179.1,71,176.9,71.6,174.5,71.6z M174.5,47.6c-2.1,0-4,0.5-5.7,1.4c-1.7,1-3,2.3-4,3.9c-1,1.7-1.4,3.6-1.4,5.7
		c0,2.1,0.5,4,1.4,5.7c1,1.7,2.3,3,4,4c1.7,1,3.6,1.4,5.7,1.4c2.1,0,4-0.5,5.6-1.4c1.6-0.9,3-2.3,3.9-3.9c1-1.6,1.5-3.5,1.5-5.5
		V38.3c0-0.2,0-0.3-0.1-0.3c-0.1-0.1-0.5-0.1-0.6,0c0,0-0.1,0.1-0.1,0.3v16.5l-1.7-2.7c-0.8-1.3-2-2.4-3.5-3.2
		C178.1,48,176.4,47.6,174.5,47.6z M174.5,69.2c-1.9,0-3.7-0.5-5.2-1.4c-1.6-0.9-2.8-2.2-3.7-3.7c-0.9-1.6-1.4-3.4-1.4-5.3
		c0-2,0.5-3.8,1.4-5.3c0.9-1.6,2.1-2.8,3.7-3.7c3.1-1.9,7.4-1.8,10.5,0c1.5,0.9,2.8,2.2,3.7,3.7c0.9,1.6,1.3,3.3,1.3,5.3
		c0,2-0.4,3.8-1.3,5.3c-0.9,1.6-2.1,2.8-3.7,3.8C178.2,68.7,176.4,69.2,174.5,69.2z M174.5,50c-1.6,0-3.1,0.4-4.3,1.1
		c-1.3,0.8-2.3,1.8-3.1,3.1c-0.7,1.3-1.1,2.8-1.1,4.4c0,1.7,0.4,3.2,1.1,4.5c0.7,1.3,1.8,2.3,3.1,3.1c2.6,1.5,6.2,1.5,8.7,0
		c1.3-0.8,2.3-1.8,3-3.1c0.7-1.3,1.1-2.8,1.1-4.5c0-1.7-0.4-3.2-1.1-4.4c-0.7-1.3-1.7-2.3-3-3.1C177.6,50.4,176.1,50,174.5,50z"/>
</g>
<g>
	<path class="st0" d="M204,48.9c-0.3,0-0.5-0.1-0.6-0.2c-0.2-0.1-0.3-0.3-0.3-0.5l0.1-10c0-0.2,0.1-0.4,0.3-0.6
		c0.2-0.1,0.4-0.2,0.6-0.2c0.3,0,0.5,0.1,0.6,0.2c0.2,0.1,0.2,0.3,0.2,0.6l-0.1,10c0,0.2-0.1,0.4-0.3,0.5
		C204.5,48.8,204.3,48.9,204,48.9z"/>
	<path class="st0" d="M204,37.3C204,37.3,204,37.3,204,37.3c0.3,0,0.5,0.1,0.7,0.2c0.2,0.1,0.2,0.3,0.2,0.6l-0.1,10
		c0,0.2-0.1,0.4-0.3,0.5c-0.2,0.1-0.4,0.2-0.6,0.2c0,0,0,0,0,0c-0.3,0-0.5-0.1-0.6-0.2c-0.2-0.1-0.3-0.3-0.3-0.5l0.1-10
		c0-0.2,0.1-0.4,0.3-0.6C203.6,37.4,203.8,37.3,204,37.3 M204,36.8c-0.4,0-0.7,0.1-1,0.3c-0.3,0.2-0.4,0.6-0.5,0.9l-0.1,10
		c0,0.4,0.1,0.7,0.4,0.9c0.3,0.2,0.6,0.3,1,0.3c0.4,0,0.7-0.1,1-0.3c0.3-0.2,0.4-0.6,0.4-0.9l0.1-10c0-0.4-0.1-0.7-0.4-0.9
		C204.8,36.9,204.4,36.8,204,36.8L204,36.8L204,36.8L204,36.8z"/>
</g>
<g>
	<path class="st0" d="M209.5,49.9c-0.3,0-0.5-0.1-0.6-0.2c-0.2-0.2-0.3-0.4-0.3-0.6l0.1-11.1c0-0.3,0.1-0.5,0.3-0.6
		c0.2-0.2,0.4-0.2,0.6-0.2c0.3,0,0.6,0.2,0.8,0.5l5.4,10.3l-0.6,0l5.3-10.3c0.2-0.3,0.5-0.5,0.8-0.5c0.3,0,0.5,0.1,0.6,0.2
		c0.2,0.2,0.3,0.4,0.3,0.6l-0.1,11.1c0,0.2-0.1,0.4-0.3,0.6c-0.2,0.2-0.4,0.2-0.6,0.2c-0.3,0-0.5-0.1-0.6-0.2
		c-0.2-0.2-0.3-0.4-0.3-0.6l0-8.8l0.3-0.1l-4.6,8.8c-0.2,0.3-0.4,0.4-0.8,0.4c-0.4,0-0.7-0.2-0.8-0.5l-4.4-8.6l0.3-0.1l0,8.8
		c0,0.2-0.1,0.4-0.3,0.6C210,49.8,209.7,49.9,209.5,49.9z"/>
	<path class="st0" d="M221.2,50.2C221.2,50.2,221.2,50.2,221.2,50.2c-0.3,0-0.6-0.1-0.8-0.3c-0.2-0.2-0.3-0.5-0.3-0.8l0-7.1
		l-3.7,7.2c-0.3,0.4-0.6,0.5-1,0.5c0,0,0,0,0,0c-0.5,0-0.9-0.2-1.1-0.7l-3.6-6.9l0,6.9c0,0.3-0.1,0.6-0.3,0.8
		c-0.2,0.2-0.5,0.3-0.8,0.3h0c-0.3,0-0.6-0.1-0.8-0.3c-0.2-0.2-0.3-0.5-0.3-0.8l0.1-11.1c0-0.3,0.1-0.6,0.4-0.8
		c0.2-0.2,0.5-0.3,0.8-0.3c0.4,0,0.8,0.2,1,0.6l4.9,9.4l4.8-9.3c0.2-0.4,0.6-0.6,1-0.6c0,0,0,0,0,0c0.3,0,0.6,0.1,0.8,0.3
		c0.2,0.2,0.3,0.5,0.3,0.8l-0.1,11.1c0,0.3-0.1,0.6-0.4,0.8C221.8,50.1,221.5,50.2,221.2,50.2z M220.6,40.9l0,8.1
		c0,0.2,0.1,0.3,0.2,0.4c0.1,0.1,0.3,0.2,0.5,0.2c0,0,0,0,0,0c0.2,0,0.3-0.1,0.4-0.2c0.1-0.1,0.2-0.2,0.2-0.4l0.1-11.1
		c0-0.2-0.1-0.3-0.2-0.4c-0.1-0.1-0.3-0.2-0.5-0.2c-0.2,0-0.4,0.1-0.6,0.3l-5,9.6l0.4,0.8l-1.4,0l0.4-0.8l-5-9.7
		c-0.1-0.2-0.3-0.3-0.6-0.3c-0.2,0-0.3,0.1-0.5,0.2c-0.1,0.1-0.2,0.2-0.2,0.4L208.9,49c0,0.2,0.1,0.3,0.2,0.4
		c0.1,0.1,0.3,0.2,0.5,0.2c0,0,0,0,0,0c0.2,0,0.3-0.1,0.5-0.2c0.1-0.1,0.2-0.2,0.2-0.4l0-8l-0.5-0.9l1-0.2l0,1l4.1,7.8
		c0.1,0.3,0.3,0.4,0.6,0.4c0.3,0,0.4-0.1,0.5-0.3l4.2-8.1l0-0.7l1.1-0.3L220.6,40.9z"/>
</g>
</svg>
